<?xml version="1.0" standalone="no"?>
<svg xmlns="http://www.w3.org/2000/svg" width="168" height="168"><rect width="168" height="168" opacity="0"></rect><g mask="url(#hms_mask_0)"><path d="M84 13.94Q65.02 13.94 48.89 23.35Q32.76 32.76 23.35 48.89Q13.94 65.02 13.94 84Q13.94 102.98 23.35 119.11Q32.76 135.24 48.89 144.65Q65.02 154.06 84 154.06Q102.98 154.06 119.11 144.65Q135.24 135.24 144.65 119.11Q154.06 102.98 154.06 84Q154.06 65.02 144.65 48.89Q135.24 32.76 119.11 23.35Q102.98 13.94 84 13.94Z" fill="rgba(252,252,252,1)"></path></g><defs><mask id="hms_mask_0"><rect width="168" height="168" fill="#ffffff"></rect><g><path d="M83.83 25.54Q90.55 25.54 96.77 26.63Q102.98 27.72 106.85 30.07Q109.2 31.58 109.28 33.6Q109.37 35.62 106.01 37.04Q102.65 38.47 95.42 38.47L93.74 38.47L83.33 38.47Q81.48 38.47 80.05 39.65Q78.62 40.82 78.12 42.67L77.95 43.34L77.95 55.61Q77.95 57.96 76.61 59.56Q75.26 61.15 73.08 61.15L72.24 61.15L63.34 61.15Q59.81 62.16 58.55 66.53Q57.29 70.9 62.33 74.59Q67.37 78.29 81.14 78.46L83.16 78.46Q86.86 78.46 89.29 78.88Q91.73 79.3 94.42 80.98Q98.45 83.33 99.62 90.55Q100.8 97.78 97.27 111.55Q95.93 116.93 93.49 121.3Q91.06 125.66 88.79 128.18Q86.52 130.7 85.51 130.87Q82.32 131.54 80.72 130.79Q79.13 130.03 78.54 128.27Q77.95 126.5 77.28 122.81L77.28 122.64Q76.61 118.61 75.52 115.67Q74.42 112.73 71.9 110.54Q70.22 109.03 65.52 105.67Q61.32 102.82 59.64 100.88Q57.96 98.95 57.96 96.26L57.96 95.09L57.96 89.21Q57.96 87.02 56.36 85.43Q54.77 83.83 52.58 83.83Q43.51 83.33 37.13 81.4Q30.74 79.46 28.56 74.09Q24.19 65.35 32.51 53.84Q40.82 42.34 55.78 33.94Q70.73 25.54 83.83 25.54ZM142.46 83.66Q142.46 94.08 138.77 104.16Q137.76 103.66 137 103.15Q136.25 102.65 135.58 101.81Q129.53 95.93 129.11 85.93Q128.69 75.94 138.43 62.66L138.94 62.83Q140.78 67.2 141.62 72.24Q142.46 77.28 142.46 83.66Z" fill="#000000"></path></g></mask></defs></svg>