<?xml version="1.0" standalone="no"?>
<svg xmlns="http://www.w3.org/2000/svg" width="68" height="68"><rect width="68" height="68" opacity="0"></rect><g mask="url(#hms_mask_0)"><path d="M34 5.64Q26.32 5.64 19.79 9.45Q13.26 13.26 9.45 19.79Q5.64 26.32 5.64 34Q5.64 41.68 9.45 48.21Q13.26 54.74 19.79 58.55Q26.32 62.36 34 62.36Q41.68 62.36 48.21 58.55Q54.74 54.74 58.55 48.21Q62.36 41.68 62.36 34Q62.36 26.32 58.55 19.79Q54.74 13.26 48.21 9.45Q41.68 5.64 34 5.64Z" fill="rgba(252,252,252,1)"></path></g><defs><mask id="hms_mask_0"><rect width="68" height="68" fill="#ffffff"></rect><g><path d="M33.93 10.34Q36.65 10.34 39.17 10.78Q41.68 11.22 43.25 12.17Q44.2 12.78 44.23 13.6Q44.27 14.42 42.91 14.99Q41.55 15.57 38.62 15.57L37.94 15.57L33.73 15.57Q32.98 15.57 32.4 16.05Q31.82 16.52 31.62 17.27L31.55 17.54L31.55 22.51Q31.55 23.46 31.01 24.11Q30.46 24.75 29.58 24.75L29.24 24.75L25.64 24.75Q24.21 25.16 23.7 26.93Q23.19 28.7 25.23 30.19Q27.27 31.69 32.84 31.76L33.66 31.76Q35.16 31.76 36.14 31.93Q37.13 32.1 38.22 32.78Q39.85 33.73 40.32 36.65Q40.8 39.58 39.37 45.15Q38.83 47.33 37.84 49.1Q36.86 50.86 35.94 51.88Q35.02 52.9 34.61 52.97Q33.32 53.24 32.67 52.94Q32.03 52.63 31.79 51.92Q31.55 51.2 31.28 49.71L31.28 49.64Q31.01 48.01 30.57 46.82Q30.12 45.63 29.1 44.74Q28.42 44.13 26.52 42.77Q24.82 41.62 24.14 40.83Q23.46 40.05 23.46 38.96L23.46 38.49L23.46 36.11Q23.46 35.22 22.81 34.58Q22.17 33.93 21.28 33.93Q17.61 33.73 15.03 32.95Q12.44 32.16 11.56 29.99Q9.79 26.45 13.16 21.79Q16.52 17.14 22.58 13.74Q28.63 10.34 33.93 10.34ZM57.66 33.86Q57.66 38.08 56.17 42.16Q55.76 41.96 55.45 41.75Q55.15 41.55 54.88 41.21Q52.43 38.83 52.26 34.78Q52.09 30.74 56.03 25.36L56.24 25.43Q56.98 27.2 57.32 29.24Q57.66 31.28 57.66 33.86Z" fill="#000000"></path></g></mask></defs></svg>