<?xml version="1.0" standalone="no"?>
<svg xmlns="http://www.w3.org/2000/svg" width="24" height="24"><rect width="24" height="24" opacity="0"></rect><g mask="url(#hms_mask_0)"><path d="M11.04 11.02Q12.34 11.02 13.44 10.36Q14.54 9.7 15.2 8.59Q15.86 7.49 15.86 6.17Q15.86 4.85 15.2 3.74Q14.54 2.64 13.44 1.98Q12.34 1.32 11.04 1.32Q9.7 1.32 8.59 1.98Q7.49 2.64 6.84 3.74Q6.19 4.85 6.19 6.17Q6.19 7.49 6.84 8.59Q7.49 9.7 8.59 10.36Q9.7 11.02 11.04 11.02ZM11.04 3.1Q11.88 3.1 12.58 3.5Q13.27 3.91 13.68 4.62Q14.09 5.33 14.09 6.17Q14.09 7.01 13.68 7.7Q13.27 8.4 12.58 8.81Q11.88 9.22 11.04 9.22Q10.2 9.22 9.49 8.81Q8.78 8.4 8.38 7.7Q7.97 7.01 7.97 6.17Q7.97 5.33 8.38 4.62Q8.78 3.91 9.49 3.5Q10.2 3.1 11.04 3.1ZM17.78 22.25Q18.48 22.25 19.07 21.9Q19.66 21.55 20 20.96Q20.35 20.38 20.35 19.68Q20.35 17.59 19.08 15.84Q17.81 14.09 15.83 13.08Q13.85 12.07 11.83 12.07L10.22 12.07Q8.21 12.07 6.23 13.08Q4.25 14.09 2.99 15.84Q1.73 17.59 1.73 19.68Q1.73 20.38 2.08 20.96Q2.42 21.55 3 21.9Q3.58 22.25 4.27 22.25L17.78 22.25ZM11.83 13.87Q13.42 13.87 14.98 14.65Q16.54 15.43 17.54 16.76Q18.55 18.1 18.55 19.68Q18.55 20.02 18.34 20.24Q18.12 20.47 17.78 20.47L4.3 20.47Q3.96 20.47 3.73 20.24Q3.5 20.02 3.5 19.68Q3.5 18.1 4.51 16.76Q5.52 15.43 7.09 14.65Q8.66 13.87 10.25 13.87L11.83 13.87Z" fill="rgba(0,226,255,1)"></path></g><defs><mask id="hms_mask_0"><rect width="24" height="24" fill="#ffffff"></rect><g><path d="M18.05 12.7Q16.56 12.7 15.31 13.43Q14.06 14.16 13.33 15.41Q12.6 16.66 12.6 18.14Q12.6 19.63 13.33 20.87Q14.06 22.1 15.31 22.84Q16.56 23.57 18.05 23.57Q19.54 23.57 20.78 22.84Q22.03 22.1 22.76 20.87Q23.5 19.63 23.5 18.14Q23.5 16.66 22.76 15.41Q22.03 14.16 20.78 13.43Q19.54 12.7 18.05 12.7Z" fill="#000000"></path></g></mask></defs><g><path d="M13.9 18.14Q13.9 19.27 14.46 20.22Q15.02 21.17 15.97 21.72Q16.92 22.27 18.05 22.27Q19.18 22.27 20.11 21.71Q21.05 21.14 21.61 20.21Q22.18 19.27 22.18 18.14Q22.18 17.02 21.62 16.07Q21.07 15.12 20.12 14.56Q19.18 13.99 18.05 13.99Q16.92 13.99 15.97 14.56Q15.02 15.12 14.46 16.07Q13.9 17.02 13.9 18.14ZM19.99 17.52Q20.26 17.52 20.42 17.69Q20.59 17.86 20.59 18.12Q20.59 18.38 20.42 18.55Q20.26 18.72 19.99 18.72L18.65 18.72L18.65 20.06Q18.65 20.33 18.48 20.5Q18.31 20.66 18.05 20.66Q17.78 20.66 17.62 20.5Q17.45 20.33 17.45 20.06L17.45 18.72L16.1 18.72Q15.84 18.72 15.67 18.55Q15.5 18.38 15.5 18.12Q15.5 17.86 15.67 17.69Q15.84 17.52 16.1 17.52L17.45 17.52L17.45 16.18Q17.45 15.91 17.62 15.74Q17.78 15.58 18.05 15.58Q18.31 15.58 18.48 15.74Q18.65 15.91 18.65 16.18L18.65 17.52L19.99 17.52Z" fill="rgba(0,226,255,1)"></path></g></svg>