<?xml version="1.0" standalone="no"?>
<svg xmlns="http://www.w3.org/2000/svg" width="24" height="24"><rect width="24" height="24" opacity="0"></rect><g><path d="M4.75 11.09L11.38 4.44Q11.64 4.18 11.64 3.79Q11.64 3.41 11.38 3.14Q11.11 2.88 10.73 2.88Q10.34 2.88 10.08 3.14L2.45 10.78Q2.21 11.02 2.09 11.32Q1.97 11.62 1.97 12Q1.97 12.36 2.09 12.66Q2.21 12.96 2.45 13.2L10.1 20.83Q10.34 21.12 10.75 21.12Q11.16 21.12 11.4 20.83Q11.66 20.57 11.66 20.18Q11.66 19.8 11.4 19.54L4.85 12.91L21.12 12.91Q21.5 12.91 21.77 12.65Q22.03 12.38 22.03 12Q22.03 11.62 21.77 11.35Q21.5 11.09 21.12 11.09Z" fill="rgba(0,0,0,1)"></path></g></svg>