<?xml version="1.0" standalone="no"?>
<svg xmlns="http://www.w3.org/2000/svg" width="24" height="24"><rect width="24" height="24" opacity="0"></rect><g><path d="M6 0.84Q5.14 0.84 4.42 1.26Q3.7 1.68 3.26 2.41Q2.83 3.14 2.83 4.01L2.83 19.99Q2.83 20.86 3.26 21.58Q3.7 22.3 4.42 22.73Q5.14 23.16 6 23.16L18 23.16Q18.86 23.16 19.58 22.73Q20.3 22.3 20.74 21.58Q21.17 20.86 21.17 19.99L21.17 4.01Q21.17 3.14 20.74 2.41Q20.3 1.68 19.58 1.26Q18.86 0.84 18 0.84L6 0.84ZM19.34 19.99Q19.34 20.57 18.96 20.95Q18.58 21.34 18 21.34L6 21.34Q5.42 21.34 5.05 20.95Q4.68 20.57 4.68 19.99L4.68 4.01Q4.68 3.43 5.05 3.05Q5.42 2.66 6 2.66L18 2.66Q18.58 2.66 18.96 3.05Q19.34 3.43 19.34 4.01L19.34 19.99ZM7.51 6.12Q7.15 6.12 6.89 6.38Q6.62 6.65 6.62 7.01Q6.62 7.37 6.89 7.63Q7.15 7.9 7.51 7.9L16.46 7.9Q16.82 7.9 17.09 7.63Q17.35 7.37 17.35 7.01Q17.35 6.65 17.09 6.38Q16.82 6.12 16.46 6.12L7.51 6.12ZM7.51 11.14Q7.15 11.14 6.89 11.4Q6.62 11.66 6.62 12.02Q6.62 12.38 6.89 12.65Q7.15 12.91 7.51 12.91L16.46 12.91Q16.82 12.91 17.09 12.65Q17.35 12.38 17.35 12.02Q17.35 11.66 17.09 11.4Q16.82 11.14 16.46 11.14L7.51 11.14ZM7.51 16.1Q7.15 16.1 6.89 16.38Q6.62 16.66 6.62 17.02Q6.62 17.38 6.89 17.64Q7.15 17.9 7.51 17.9L11.98 17.9Q12.34 17.9 12.6 17.64Q12.86 17.38 12.86 17.02Q12.86 16.66 12.61 16.38Q12.36 16.1 12 16.1L7.51 16.1Z" fill="rgba(0,208,255,1)"></path></g></svg>