<?xml version="1.0" standalone="no"?>
<svg xmlns="http://www.w3.org/2000/svg" width="16" height="16"><rect width="16" height="16" opacity="0"></rect><g><path d="M2.5 2Q2 2 1.58 2.25Q1.17 2.5 0.92 2.92Q0.67 3.34 0.67 3.84L0.67 12.16Q0.67 12.66 0.92 13.08Q1.17 13.5 1.58 13.75Q2 14 2.5 14L13.5 14Q14 14 14.42 13.75Q14.83 13.5 15.08 13.08Q15.33 12.66 15.33 12.16L15.33 3.84L15.33 3.81Q15.33 3.31 15.08 2.9Q14.83 2.48 14.42 2.24Q14 2 13.5 2L2.5 2ZM9.12 7.78Q8.82 8.08 8.4 8.18Q7.98 8.29 7.57 8.18Q7.15 8.08 6.86 7.78L2.24 2.99L13.74 2.99L9.12 7.78ZM2.5 12.99Q2.14 12.99 1.9 12.75Q1.66 12.51 1.66 12.16L1.66 3.89L6.14 8.48Q6.51 8.85 6.98 9.05Q7.46 9.25 8 9.25Q8.51 9.25 8.99 9.05Q9.47 8.85 9.84 8.48L14.34 3.87L14.34 12.16Q14.34 12.51 14.1 12.75Q13.86 12.99 13.5 12.99L2.5 12.99Z" fill="rgba(0,0,0,0.9019607843137255)"></path></g></svg>