<?xml version="1.0" standalone="no"?>
<svg xmlns="http://www.w3.org/2000/svg" width="24" height="24"><rect width="24" height="24" opacity="0"></rect><g><path d="M4.54 18.1Q4.97 18.07 5.62 17.86Q6.26 17.64 6.96 17.3Q7.44 17.06 7.9 16.85Q10.3 17.45 12.73 16.66Q15.17 15.86 16.73 13.97Q18.29 12.07 18.29 9.55Q18.29 7.54 17.16 5.83Q16.03 4.13 14.11 3.13Q12.19 2.14 9.91 2.14Q7.66 2.14 5.72 3.13Q3.79 4.13 2.65 5.83Q1.51 7.54 1.51 9.55Q1.51 11.16 2.23 12.61Q2.95 14.06 4.25 15.12Q4.39 15.31 4.28 15.76Q4.18 16.2 3.82 17.04Q3.62 17.45 3.84 17.78Q4.06 18.12 4.54 18.1ZM9.91 3.94Q11.71 3.94 13.24 4.68Q14.76 5.42 15.64 6.72Q16.51 8.02 16.51 9.55Q16.51 11.52 15.32 12.92Q14.14 14.33 12.23 14.92Q10.32 15.5 8.28 15.14Q7.9 15.07 7.46 15.23Q7.03 15.38 6.34 15.74Q6.22 15.82 6.13 15.86Q6.05 15.91 5.93 15.98Q6.1 15.31 5.99 14.72Q5.88 14.14 5.38 13.75Q4.37 12.94 3.84 11.84Q3.31 10.75 3.31 9.55Q3.31 8.02 4.2 6.72Q5.09 5.42 6.6 4.68Q8.11 3.94 9.91 3.94Z" fill="rgba(0,208,255,1)"></path><path d="M22.44 13.99Q22.44 12.96 22.08 11.98Q21.72 10.99 21.06 10.16Q20.4 9.34 19.56 8.76Q19.63 9.36 19.61 9.9Q19.58 10.44 19.46 11.14L19.66 11.33Q20.16 11.93 20.41 12.58Q20.66 13.22 20.66 13.99Q20.66 15.07 20.18 16.02Q19.7 16.97 18.79 17.71Q18.36 18.05 18.24 18.52Q18.12 18.98 18.19 19.56Q18.05 19.51 17.93 19.44Q17.81 19.37 17.66 19.3Q16.92 18.91 16.51 18.91Q16.2 18.91 15.98 18.98Q14.83 19.22 13.73 19.08Q12.62 18.94 11.54 18.24Q10.56 18.53 8.83 18.34Q9.91 19.56 11.44 20.23Q12.96 20.9 14.76 20.9Q15.72 20.9 16.56 20.71Q16.61 20.74 16.66 20.76Q16.7 20.78 16.78 20.83Q18.34 21.7 19.46 21.82Q20.14 21.84 20.38 21.52Q20.62 21.19 20.38 20.76Q20.06 20.09 19.97 19.67Q19.87 19.25 19.94 19.13Q21.14 18.14 21.79 16.81Q22.44 15.48 22.44 13.99Z" fill="rgba(0,208,255,1)"></path></g></svg>