<?xml version="1.0" standalone="no"?>
<svg xmlns="http://www.w3.org/2000/svg" width="16" height="16"><rect width="16" height="16" opacity="0"></rect><g><path d="M5.82 15.04Q6.53 15.04 7.15 14.79Q7.78 14.54 8.24 14.08L14.13 8.21Q14.27 8.06 14.27 7.86Q14.27 7.65 14.13 7.5Q13.98 7.36 13.78 7.36Q13.57 7.36 13.41 7.5L7.52 13.38Q7.14 13.76 6.67 13.91Q6.21 14.06 5.79 14.03Q5.15 14.03 4.55 13.77Q3.95 13.5 3.5 13.04Q2.98 12.53 2.8 11.8Q2.62 11.07 2.82 10.34Q3.02 9.6 3.55 9.07L10.19 2.42Q10.43 2.18 10.76 2.06Q11.09 1.94 11.46 1.95Q11.82 1.97 12.16 2.1Q12.5 2.24 12.75 2.5Q13.09 2.85 13.21 3.31Q13.33 3.78 13.22 4.24Q13.1 4.7 12.77 5.04L6.51 11.31Q6.38 11.44 6.1 11.4Q5.81 11.36 5.63 11.18Q5.47 11.02 5.47 10.76Q5.47 10.5 5.63 10.34L10.93 5.04Q11.07 4.9 11.07 4.69Q11.07 4.48 10.93 4.32Q10.78 4.18 10.58 4.18Q10.37 4.18 10.22 4.32L4.93 9.63Q4.62 9.94 4.53 10.35Q4.43 10.77 4.54 11.18Q4.64 11.6 4.93 11.89Q5.22 12.18 5.64 12.32Q6.06 12.46 6.5 12.39Q6.93 12.32 7.23 12.02L13.49 5.74Q14.02 5.22 14.2 4.5Q14.38 3.78 14.19 3.05Q14 2.32 13.47 1.79Q13.09 1.41 12.57 1.19Q12.05 0.98 11.49 0.94Q10.91 0.93 10.39 1.13Q9.87 1.33 9.49 1.71L2.83 8.35Q2.11 9.09 1.85 10.08Q1.58 11.07 1.83 12.06Q2.08 13.04 2.78 13.74Q3.36 14.34 4.18 14.69Q4.99 15.04 5.82 15.04Z" fill="rgba(0,0,0,0.9019607843137255)"></path></g></svg>