<?xml version="1.0" standalone="no"?>
<svg xmlns="http://www.w3.org/2000/svg" width="24" height="24"><rect width="24" height="24" opacity="0"></rect><g><path d="M12 11.14Q12.89 11.14 13.63 10.7Q14.38 10.27 14.81 9.53Q15.24 8.78 15.24 7.92Q15.24 7.06 14.81 6.31Q14.38 5.57 13.63 5.12Q12.89 4.68 12 4.68Q11.14 4.68 10.39 5.12Q9.65 5.57 9.22 6.31Q8.78 7.06 8.78 7.92Q8.78 8.78 9.22 9.53Q9.65 10.27 10.39 10.7Q11.14 11.14 12 11.14ZM16.25 18.67Q16.99 18.67 17.51 18.14Q18.02 17.62 18.02 16.87Q18.02 15.5 17.21 14.38Q16.39 13.25 15.11 12.59Q13.82 11.93 12.5 11.93L11.52 11.93Q10.2 11.93 8.92 12.59Q7.63 13.25 6.8 14.38Q5.98 15.5 5.98 16.87Q5.98 17.62 6.5 18.14Q7.03 18.67 7.78 18.67L16.25 18.67Z" fill="rgba(0,0,0,0.4)"></path><path d="M2.76 9.53Q3.07 9.53 3.29 9.31Q3.5 9.1 3.5 8.78L3.5 5.76Q3.5 4.8 4.16 4.15Q4.82 3.5 5.76 3.5L8.74 3.5Q9.05 3.5 9.26 3.29Q9.48 3.07 9.48 2.76Q9.48 2.45 9.26 2.22Q9.05 1.99 8.74 1.99L5.76 1.99Q4.75 1.99 3.89 2.51Q3.02 3.02 2.51 3.89Q1.99 4.75 1.99 5.76L1.99 8.78Q1.99 9.1 2.22 9.31Q2.45 9.53 2.76 9.53ZM9.46 21.24Q9.46 20.93 9.23 20.71Q9 20.5 8.69 20.5L5.76 20.5Q4.82 20.5 4.16 19.84Q3.5 19.18 3.5 18.24L3.5 15.22Q3.5 14.9 3.29 14.69Q3.07 14.47 2.76 14.47Q2.45 14.47 2.22 14.69Q1.99 14.9 1.99 15.22L1.99 18.24Q1.99 19.25 2.51 20.11Q3.02 20.98 3.89 21.49Q4.75 22.01 5.76 22.01L8.69 22.01Q9 22.01 9.23 21.78Q9.46 21.55 9.46 21.24ZM22.01 15.24Q22.01 14.93 21.78 14.7Q21.55 14.47 21.24 14.47Q20.93 14.47 20.71 14.7Q20.5 14.93 20.5 15.24L20.5 18.24Q20.5 19.18 19.84 19.84Q19.18 20.5 18.24 20.5L15.24 20.5Q14.93 20.5 14.7 20.71Q14.47 20.93 14.47 21.24Q14.47 21.55 14.7 21.78Q14.93 22.01 15.24 22.01L18.24 22.01Q19.25 22.01 20.11 21.49Q20.98 20.98 21.49 20.11Q22.01 19.25 22.01 18.24L22.01 15.24ZM18.24 3.5Q19.18 3.5 19.84 4.15Q20.5 4.8 20.5 5.76L20.5 8.78Q20.5 9.1 20.71 9.31Q20.93 9.53 21.24 9.53Q21.55 9.53 21.78 9.31Q22.01 9.1 22.01 8.78L22.01 5.76Q22.01 4.75 21.49 3.89Q20.98 3.02 20.11 2.51Q19.25 1.99 18.24 1.99L15.31 1.99Q15 1.99 14.77 2.21Q14.54 2.42 14.54 2.76Q14.54 3.07 14.77 3.29Q15 3.5 15.31 3.5L18.24 3.5Z" fill="rgba(0,0,0,0.4)"></path></g></svg>