<?xml version="1.0" standalone="no"?>
<svg xmlns="http://www.w3.org/2000/svg" width="24" height="24"><rect width="24" height="24" opacity="0"></rect><g><path d="M12 11.16Q12.91 11.16 13.67 10.73Q14.42 10.3 14.86 9.54Q15.29 8.77 15.29 7.89Q15.29 7.01 14.85 6.26Q14.41 5.5 13.66 5.06Q12.9 4.61 12 4.61Q11.11 4.61 10.36 5.06Q9.61 5.51 9.17 6.27Q8.74 7.03 8.74 7.9Q8.74 8.78 9.17 9.54Q9.6 10.3 10.36 10.73Q11.12 11.16 12 11.16ZM16.18 18.84Q16.97 18.84 17.52 18.28Q18.07 17.71 18.07 16.94Q18.07 15.56 17.24 14.41Q16.42 13.27 15.12 12.6Q13.83 11.93 12.5 11.93L11.52 11.93Q10.19 11.93 8.9 12.6Q7.61 13.27 6.77 14.41Q5.93 15.56 5.93 16.94Q5.93 17.73 6.49 18.28Q7.06 18.84 7.85 18.84L16.18 18.84Z" fill="rgba(0,208,255,1)"></path><path d="M2.76 9.53Q3.12 9.53 3.37 9.28Q3.62 9.03 3.62 8.66L3.62 5.69Q3.62 4.8 4.24 4.2Q4.85 3.6 5.71 3.6L8.66 3.6Q9.03 3.6 9.28 3.34Q9.53 3.07 9.53 2.71Q9.53 2.35 9.28 2.09Q9.03 1.82 8.66 1.82L5.71 1.82Q4.69 1.82 3.81 2.35Q2.93 2.88 2.4 3.77Q1.87 4.65 1.87 5.69L1.87 8.66Q1.87 9.03 2.14 9.28Q2.4 9.53 2.76 9.53ZM9.5 21.34Q9.5 20.98 9.24 20.71Q8.98 20.45 8.62 20.45L5.71 20.45Q4.85 20.45 4.24 19.85Q3.62 19.25 3.62 18.36L3.62 15.38Q3.62 15.02 3.37 14.77Q3.12 14.52 2.76 14.52Q2.4 14.52 2.14 14.77Q1.87 15.02 1.87 15.38L1.87 18.36Q1.87 19.39 2.4 20.28Q2.93 21.17 3.81 21.7Q4.69 22.22 5.71 22.22L8.62 22.22Q8.98 22.22 9.24 21.96Q9.5 21.7 9.5 21.34ZM22.13 15.41Q22.13 15.05 21.86 14.78Q21.6 14.52 21.24 14.52Q20.88 14.52 20.63 14.78Q20.38 15.05 20.38 15.41L20.38 18.36Q20.38 19.25 19.76 19.85Q19.15 20.45 18.29 20.45L15.34 20.45Q14.97 20.45 14.69 20.71Q14.42 20.98 14.42 21.34Q14.42 21.7 14.69 21.96Q14.97 22.22 15.34 22.22L18.29 22.22Q19.31 22.22 20.19 21.7Q21.07 21.17 21.6 20.28Q22.13 19.39 22.13 18.36L22.13 15.41ZM18.29 3.6Q19.15 3.6 19.76 4.2Q20.38 4.8 20.38 5.69L20.38 8.66Q20.38 9.03 20.63 9.28Q20.88 9.53 21.24 9.53Q21.6 9.53 21.86 9.28Q22.13 9.02 22.13 8.66L22.13 5.69Q22.13 4.65 21.6 3.77Q21.07 2.88 20.19 2.35Q19.31 1.82 18.29 1.82L15.38 1.82Q15.02 1.82 14.76 2.09Q14.5 2.35 14.5 2.71Q14.5 3.07 14.76 3.34Q15.02 3.6 15.38 3.6L18.29 3.6Z" fill="rgba(0,208,255,1)"></path></g></svg>