<?xml version="1.0" standalone="no"?>
<svg xmlns="http://www.w3.org/2000/svg" width="24" height="24"><rect width="24" height="24" opacity="0"></rect><g><path d="M1.82 18.05Q1.82 19.18 2.38 20.12Q2.93 21.07 3.88 21.62Q4.82 22.18 5.95 22.18L18.05 22.18Q19.1 22.18 20.04 21.65Q20.98 21.12 21.56 20.17Q22.15 19.22 22.15 18.05L22.15 5.95Q22.15 4.82 21.6 3.88Q21.05 2.93 20.1 2.38Q19.15 1.82 18.05 1.82L5.95 1.82Q4.82 1.82 3.88 2.38Q2.93 2.93 2.38 3.88Q1.82 4.82 1.82 5.95L1.82 18.05ZM3.67 8.93L20.33 8.93L20.33 18.05Q20.33 18.98 19.67 19.66Q19.01 20.33 18.05 20.33L5.95 20.33Q5.33 20.33 4.81 20.02Q4.3 19.7 3.98 19.19Q3.67 18.67 3.67 18.05ZM3.55 5.95Q3.55 5.11 4.08 4.46Q4.61 3.82 5.45 3.62L6.82 7.2L3.55 7.2L3.55 5.95ZM10.44 3.55L11.86 7.2L8.54 7.2L7.13 3.55ZM10.06 12.62Q10.06 12.36 10.22 12.16Q10.39 11.95 10.66 11.92Q10.92 11.88 11.14 12.02L14.38 13.9Q14.62 14.02 14.7 14.27Q14.78 14.52 14.7 14.76Q14.62 15 14.38 15.12L11.14 16.99Q10.92 17.14 10.66 17.09Q10.39 17.04 10.22 16.84Q10.06 16.63 10.06 16.37L10.06 12.62ZM15.46 3.55L16.87 7.2L13.58 7.2L12.17 3.55ZM18.05 3.55Q18.7 3.55 19.24 3.89Q19.78 4.22 20.11 4.76Q20.45 5.3 20.45 5.95L20.45 7.2L18.62 7.2L17.21 3.55L18.05 3.55Z" fill="rgba(0,208,255,1)"></path></g></svg>