<?xml version="1.0" standalone="no"?>
<svg xmlns="http://www.w3.org/2000/svg" width="24" height="24"><rect width="24" height="24" opacity="0"></rect><g mask="url(#hms_mask_0)"><path d="M12 22.51Q14.86 22.51 17.27 21.1Q19.68 19.68 21.1 17.27Q22.51 14.86 22.51 12Q22.51 9.17 21.1 6.76Q19.68 4.34 17.27 2.93Q14.86 1.51 12 1.51Q9.14 1.51 6.74 2.93Q4.34 4.34 2.93 6.74Q1.51 9.14 1.51 12Q1.51 14.86 2.93 17.27Q4.34 19.68 6.76 21.1Q9.17 22.51 12 22.51Z" fill="rgba(0,0,0,0.4)"></path></g><defs><mask id="hms_mask_0"><rect width="24" height="24" fill="#ffffff"></rect><g><path d="M9.29 8.81Q10.22 9.62 11.76 10.9Q12.17 11.26 12.48 11.52Q12.79 11.78 13.03 12.02Q13.27 12.24 13.26 12.52Q13.25 12.79 13.03 13.03Q12.82 13.27 12.53 13.27Q12.24 13.27 12.02 13.03Q11.35 12.29 10.44 11.18Q9.65 10.25 8.83 9.31Q8.66 9.14 8.71 8.96Q8.76 8.78 8.95 8.72Q9.14 8.66 9.29 8.81ZM11.95 3.74Q14.26 3.77 16.16 4.87Q18.07 5.98 19.16 7.88Q20.26 9.79 20.26 12.14Q20.26 14.35 19.15 16.24Q18.05 18.12 16.15 19.2Q14.26 20.28 11.98 20.26Q9.7 20.23 7.84 19.13Q5.98 18.02 4.87 16.14Q3.77 14.26 3.74 11.98Q3.72 10.44 4.26 9.05Q4.8 7.66 5.78 6.53Q6 6.31 6.25 6.3Q6.5 6.29 6.72 6.48Q6.94 6.67 6.96 6.92Q6.98 7.18 6.79 7.39Q5.98 8.33 5.51 9.48Q5.04 10.63 5.04 11.88Q5.04 13.8 5.95 15.42Q6.86 17.04 8.46 18Q10.06 18.96 12 18.96Q13.85 18.96 15.46 18.05Q17.06 17.14 18.01 15.54Q18.96 13.94 18.96 12Q18.96 10.25 18.13 8.72Q17.3 7.2 15.86 6.23Q14.42 5.26 12.65 5.06L12.65 6.98Q12.65 7.27 12.48 7.44Q12.31 7.61 12 7.63Q11.71 7.63 11.53 7.46Q11.35 7.3 11.35 7.03L11.35 4.39Q11.35 4.1 11.52 3.94Q11.69 3.77 11.95 3.74Z" fill="#000000"></path></g></mask></defs></svg>