<?xml version="1.0" standalone="no"?>
<svg xmlns="http://www.w3.org/2000/svg" width="24" height="24"><rect width="24" height="24" opacity="0"></rect><g><path d="M13.87 16.78Q12.96 16.9 12.07 16.9Q11.02 16.9 9.98 16.73Q8.95 16.56 8.21 16.34L8.06 16.32L7.99 16.2Q7.66 15.6 7.33 15.1Q7.01 14.59 6.67 14.3Q5.86 13.32 5.44 12.12Q5.02 10.92 5.02 9.65Q5.02 8.78 5.18 8.04L4.01 6.86Q3.55 8.23 3.55 9.62Q3.55 11.16 4.07 12.6Q4.58 14.04 5.57 15.24L5.69 15.36Q5.95 15.58 6.31 16.15Q6.67 16.73 6.91 17.23Q6.96 17.35 7.07 17.46Q7.18 17.57 7.32 17.62L7.37 17.64Q7.7 17.74 8.41 17.9Q9.12 18.07 10.09 18.22Q11.06 18.36 12.07 18.36Q13.49 18.36 15.17 18.07L13.87 16.78ZM15.72 19.01Q13.85 19.34 11.92 19.33Q9.98 19.32 8.06 18.96L7.68 18.89Q7.61 18.86 7.57 18.92Q7.54 18.98 7.54 19.03Q7.63 20.16 8.23 21.07Q8.83 21.98 9.79 22.51Q10.75 23.04 11.88 23.04L12.12 23.04Q13.73 23.04 14.95 22Q16.18 20.95 16.44 19.37L16.03 18.94L15.72 19.01ZM18.31 15.38Q18.36 15.31 18.41 15.26Q19.39 14.06 19.91 12.62Q20.42 11.18 20.42 9.65Q20.42 7.3 19.3 5.3Q18.17 3.31 16.22 2.12Q14.28 0.94 12 0.94Q10.37 0.94 8.87 1.56Q7.37 2.18 6.22 3.31L7.25 4.34Q8.21 3.43 9.43 2.92Q10.66 2.4 12 2.4Q13.9 2.4 15.5 3.38Q17.11 4.37 18.06 6.02Q19.01 7.68 19.01 9.65Q19.01 10.92 18.58 12.13Q18.14 13.34 17.33 14.33L17.28 14.38L18.31 15.38Z" fill="rgba(0,0,0,0.9019607843137255)"></path><path d="M21.55 21.55Q21.77 21.31 21.77 21Q21.77 20.69 21.55 20.47L3.5 2.45Q3.29 2.23 2.98 2.23Q2.66 2.23 2.45 2.45Q2.23 2.66 2.23 2.98Q2.23 3.29 2.45 3.5L20.47 21.55Q20.74 21.77 21.02 21.77Q21.31 21.77 21.55 21.55Z" fill="rgba(0,0,0,0.9019607843137255)"></path></g></svg>