<?xml version="1.0" standalone="no"?>
<svg xmlns="http://www.w3.org/2000/svg" width="24" height="24"><rect width="24" height="24" opacity="0"></rect><g mask="url(#hms_mask_0)"><path d="M2.5 4.25Q1.82 4.25 1.25 4.58Q0.67 4.92 0.34 5.51Q0 6.1 0 6.77L0 17.26Q0 17.93 0.34 18.5Q0.67 19.08 1.25 19.42Q1.82 19.75 2.5 19.75L15 19.75Q15.67 19.75 16.25 19.42Q16.82 19.08 17.16 18.5Q17.5 17.93 17.5 17.26L17.5 6.77Q17.5 6.1 17.16 5.51Q16.82 4.92 16.25 4.58Q15.67 4.25 15 4.25L2.5 4.25ZM18.82 8.3L18.82 15.7L21.82 17.23Q22.3 17.47 22.81 17.36Q23.33 17.26 23.66 16.85Q24 16.44 24 15.91L24 8.09Q24 7.56 23.66 7.15Q23.33 6.74 22.81 6.62Q22.3 6.5 21.82 6.77Z" fill="rgba(0,0,0,0.9019607843137255)"></path></g><defs><mask id="hms_mask_0"><rect width="24" height="24" fill="#ffffff"></rect><g><path d="M4.06 1.18Q3.46 0.58 2.6 0.58Q1.75 0.58 1.13 1.18Q0.53 1.78 0.53 2.63Q0.53 3.48 1.13 4.08L19.22 21.98Q19.61 22.39 20.15 22.52Q20.69 22.66 21.22 22.52Q21.74 22.39 22.13 21.98Q22.75 21.38 22.75 20.53Q22.75 19.68 22.13 19.08L4.06 1.18Z" fill="#000000"></path></g></mask></defs><g><path d="M21.22 21.07Q21.43 20.86 21.43 20.54Q21.43 20.23 21.22 20.02L3.14 2.11L3.12 2.09Q2.88 1.9 2.58 1.9Q2.28 1.9 2.06 2.11Q1.85 2.33 1.85 2.64Q1.85 2.95 2.06 3.17L20.14 21.07Q20.35 21.29 20.68 21.29Q21 21.29 21.22 21.07Z" fill="rgba(0,0,0,0.9019607843137255)"></path></g></svg>