<?xml version="1.0" standalone="no"?>
<svg xmlns="http://www.w3.org/2000/svg" width="24" height="24"><rect width="24" height="24" opacity="0"></rect><g><path d="M2.5 4.25Q1.82 4.25 1.25 4.58Q0.67 4.92 0.34 5.51Q0 6.1 0 6.77L0 17.26Q0 17.93 0.34 18.5Q0.67 19.08 1.25 19.42Q1.82 19.75 2.5 19.75L15 19.75Q15.67 19.75 16.25 19.42Q16.82 19.08 17.16 18.5Q17.5 17.93 17.5 17.26L17.5 6.77Q17.5 6.1 17.16 5.51Q16.82 4.92 16.25 4.58Q15.67 4.25 15 4.25L2.5 4.25ZM18.82 8.3L18.82 15.7L21.82 17.23Q22.3 17.47 22.81 17.36Q23.33 17.26 23.66 16.85Q24 16.44 24 15.91L24 8.09Q24 7.56 23.66 7.15Q23.33 6.74 22.81 6.62Q22.3 6.5 21.82 6.77Z" fill="rgba(0,0,0,0.9019607843137255)"></path></g></svg>